HIERARCHY
ROOT Hips
{
	OFFSET -0.001795 -0.223333 0.028219
	CHANNELS 6 Xposition Yposition Zposition Zrotation Yrotation Xrotation 
	JOINT LeftUpLeg
	{
		OFFSET 0.069520 -0.091406 -0.006815
		CHANNELS 3 Zrotation Yrotation Xrotation
		JOINT LeftLeg
		{
			OFFSET 0.034277 -0.375199 -0.004496
			CHANNELS 3 Zrotation Yrotation Xrotation
			JOINT LeftFoot
			{
				OFFSET -0.013596 -0.397961 -0.043693
				CHANNELS 3 Zrotation Yrotation Xrotation
				JOINT LeftToe
				{
					OFFSET 0.026358 -0.055791 0.119288
					CHANNELS 3 Zrotation Yrotation Xrotation
					End Site
					{
						OFFSET 0.000000 0.000000 0.000000
					}
				}
			}
		}
	}
	JOINT RightUpLeg
	{
		OFFSET -0.067670 -0.090522 -0.004320
		CHANNELS 3 Zrotation Yrotation Xrotation
		JOINT RightLeg
		{
			OFFSET -0.038290 -0.382569 -0.008850
			CHANNELS 3 Zrotation Yrotation Xrotation
			JOINT RightFoot
			{
				OFFSET 0.015774 -0.398415 -0.042312
				CHANNELS 3 Zrotation Yrotation Xrotation
				JOINT RightToe
				{
					OFFSET -0.025372 -0.048144 0.123348
					CHANNELS 3 Zrotation Yrotation Xrotation
					End Site
					{
						OFFSET 0.000000 0.000000 0.000000
					}
				}
			}
		}
	}
	JOINT Spine
	{
		OFFSET -0.002533 0.108963 -0.026696
		CHANNELS 3 Zrotation Yrotation Xrotation
		JOINT Spine1
		{
			OFFSET 0.005487 0.135180 0.001092
			CHANNELS 3 Zrotation Yrotation Xrotation
			JOINT Spine2
			{
				OFFSET 0.001457 0.052922 0.025425
				CHANNELS 3 Zrotation Yrotation Xrotation
				JOINT Neck
				{
					OFFSET -0.002778 0.213870 -0.042857
					CHANNELS 3 Zrotation Yrotation Xrotation
					JOINT Head
					{
						OFFSET 0.005152 0.064970 0.051349
						CHANNELS 3 Zrotation Yrotation Xrotation
						End Site
						{
							OFFSET 0.000000 0.000000 0.000000
						}
					}
				}
				JOINT LeftShoulder
				{
					OFFSET 0.078845 0.121749 -0.034090
					CHANNELS 3 Zrotation Yrotation Xrotation
					JOINT LeftArm
					{
						OFFSET 0.090977 0.030469 -0.008868
						CHANNELS 3 Zrotation Yrotation Xrotation
						JOINT LeftForeArm
						{
							OFFSET 0.259612 -0.012772 -0.027456
							CHANNELS 3 Zrotation Yrotation Xrotation
							JOINT LeftHand
							{
								OFFSET 0.249234 0.008986 -0.001171
								CHANNELS 3 Zrotation Yrotation Xrotation
								End Site
								{
									OFFSET 0.000000 0.000000 0.000000
								}
							}
						}
					}
				}
				JOINT RightShoulder
				{
					OFFSET -0.081759 0.118833 -0.038615
					CHANNELS 3 Zrotation Yrotation Xrotation
					JOINT RightArm
					{
						OFFSET -0.096012 0.032551 -0.009143
						CHANNELS 3 Zrotation Yrotation Xrotation
						JOINT RightForeArm
						{
							OFFSET -0.253742 -0.013329 -0.021401
							CHANNELS 3 Zrotation Yrotation Xrotation
							JOINT RightHand
							{
								OFFSET -0.255298 0.007772 -0.005559
								CHANNELS 3 Zrotation Yrotation Xrotation
								End Site
								{
									OFFSET 0.000000 0.000000 0.000000
								}
							}
						}
					}
				}
			}
		}
	}
}
MOTION
Frames: 13
Frame Time: 0.050000
0.000000 0.950156 0.000000 -2.737233 -0.255463 7.308665 7.985447 -0.245837 -0.547820 3.856425 0.497808 -13.326422 -0.818775 5.424009 19.243834 0.000000 0.000000 0.000000 -4.914776 0.448159 -4.192090 1.773543 -0.282421 -4.151986 -11.715554 -24.657269 27.151594 0.000000 0.000000 0.000000 -2.578995 0.191183 -5.317859 4.734264 -1.090769 -15.493991 -0.095683 -1.640407 19.637006 -1.103310 1.743891 -20.353098 0.000000 0.000000 0.000000 -20.746802 4.524754 -3.616865 -53.912591 -9.519348 -3.753834 -15.025845 -22.741629 4.212286 0.000000 0.000000 0.000000 13.413974 2.747063 0.173093 59.381940 8.441462 -3.228397 10.791230 22.783276 2.857870 0.000000 0.000000 0.000000 
-0.000071 0.948982 -0.000389 -2.830949 -2.263621 7.791987 7.891717 -0.209070 -0.321923 3.942260 0.544771 -13.713224 0.256109 6.653043 19.344251 0.000000 0.000000 0.000000 -5.126088 0.523601 -5.048906 2.166176 -0.290771 -3.833050 -10.628915 -23.632754 25.041455 0.000000 0.000000 0.000000 -2.472207 0.261572 -7.399345 4.595825 -1.185375 -14.076799 0.059574 -0.350240 19.921948 -1.582883 2.059392 -20.159745 0.000000 0.000000 0.000000 -20.700277 5.753860 -4.337630 -54.249657 -9.606384 -3.730488 -15.993386 -22.626578 4.395236 0.000000 0.000000 0.000000 12.909383 2.708931 0.203583 60.565489 8.454227 -3.300801 10.044599 24.247370 2.933633 0.000000 0.000000 0.000000 
-0.000041 0.948891 -0.000747 -2.402140 -2.146371 7.764807 7.690946 -0.214550 -0.639627 3.476399 0.506085 -13.255921 0.193279 6.548783 19.198422 0.000000 0.000000 0.000000 -5.604136 0.524763 -5.066698 1.893561 -0.273384 -3.817005 -10.328576 -23.209879 25.211159 0.000000 0.000000 0.000000 -2.645670 0.258795 -7.586062 4.812038 -1.223867 -14.476150 -0.706593 -0.270378 20.376452 -1.076764 1.766695 -19.931078 0.000000 0.000000 0.000000 -20.717527 5.226899 -4.075764 -53.843401 -9.111310 -3.990873 -15.543730 -22.212273 4.203676 0.000000 0.000000 0.000000 14.558668 3.174967 0.378727 59.331282 8.086672 -3.479775 9.472589 24.949443 2.923114 0.000000 0.000000 0.000000 
-0.000025 0.948479 -0.000991 -2.692440 -3.121522 7.948635 7.869463 -0.203604 -0.660164 3.590818 0.503179 -13.099300 0.764718 7.188867 19.114874 0.000000 0.000000 0.000000 -5.667806 0.572290 -5.701649 2.142493 -0.273628 -3.272574 -9.348481 -22.056001 24.568500 0.000000 0.000000 0.000000 -2.604967 0.295008 -8.444121 4.878846 -1.302400 -13.953507 -0.578995 -0.306032 20.314471 -1.337343 1.833342 -19.584321 0.000000 0.000000 0.000000 -21.064794 6.395416 -4.643166 -53.871481 -8.981444 -4.048790 -16.123572 -21.669756 4.243500 0.000000 0.000000 0.000000 13.915240 3.298349 0.351966 59.464192 7.913035 -3.577358 10.650847 25.096104 3.151005 0.000000 0.000000 0.000000 
-0.000105 0.948866 -0.001247 -2.639737 -2.893151 7.652853 7.952985 -0.205884 -0.747254 3.382251 0.459109 -12.528392 0.656927 7.034418 18.942240 0.000000 0.000000 0.000000 -5.692170 0.552611 -5.450022 1.756516 -0.248808 -3.269332 -8.964499 -21.501501 25.222802 0.000000 0.000000 0.000000 -2.561942 0.284756 -8.229484 5.231482 -1.436441 -13.642420 -1.111825 -0.422987 20.189412 -1.135718 1.729859 -19.980329 0.000000 0.000000 0.000000 -20.759610 6.135533 -4.469074 -54.113358 -9.171965 -3.963279 -16.286723 -21.373589 4.208983 0.000000 0.000000 0.000000 14.131326 3.081477 0.239293 59.266363 7.901009 -3.560010 11.339492 25.523790 3.359302 0.000000 0.000000 0.000000 
-0.000217 0.949197 -0.001486 -2.751155 -3.426282 7.877441 7.893898 -0.204535 -0.990234 3.639030 0.444762 -12.287700 0.950660 7.393341 19.045389 0.000000 0.000000 0.000000 -5.689650 0.575627 -5.711702 1.510080 -0.228593 -3.206395 -7.839970 -20.067091 24.730474 0.000000 0.000000 0.000000 -2.633089 0.305017 -8.741040 5.268009 -1.455079 -13.690614 -0.852272 -0.636467 20.561839 -0.983077 1.562309 -20.111885 0.000000 0.000000 0.000000 -20.862740 6.589225 -4.593040 -54.630930 -9.288393 -3.984567 -15.945710 -20.888352 4.076117 0.000000 0.000000 0.000000 13.291087 3.014960 0.172035 59.642840 7.779607 -3.702922 11.831280 25.360964 3.414036 0.000000 0.000000 0.000000 
-0.000489 0.949300 -0.001731 -2.827990 -3.570338 7.857426 8.041068 -0.204081 -1.060748 3.541130 0.429569 -12.069891 1.041353 7.492399 19.009339 0.000000 0.000000 0.000000 -5.352633 0.580688 -5.796394 1.203709 -0.201453 -2.984925 -7.889548 -20.153290 24.397344 0.000000 0.000000 0.000000 -2.690637 0.301976 -8.639010 5.468086 -1.527219 -13.641103 -1.046869 -0.920703 20.466783 -0.614597 1.286723 -20.223900 0.000000 0.000000 0.000000 -21.050024 6.458951 -4.454168 -54.465023 -9.310802 -3.976820 -16.087456 -20.831952 4.102292 0.000000 0.000000 0.000000 13.386407 3.095959 0.137037 59.456721 7.377081 -3.898599 12.422137 25.703961 3.570883 0.000000 0.000000 0.000000 
-0.000849 0.949217 -0.001940 -2.914508 -3.785418 7.964905 8.051723 -0.203627 -1.130633 3.704771 0.428890 -12.053987 1.167370 7.644952 19.042335 0.000000 0.000000 0.000000 -4.948949 0.590898 -5.922356 0.998441 -0.180676 -2.782699 -8.104905 -20.465984 23.550782 0.000000 0.000000 0.000000 -2.642276 0.310436 -8.732995 5.508591 -1.561555 -13.409217 -1.132438 -1.176504 20.120334 -0.359929 1.045279 -19.479287 0.000000 0.000000 0.000000 -21.037801 6.226373 -4.232986 -54.269678 -9.255293 -3.975830 -16.278070 -20.961961 4.175752 0.000000 0.000000 0.000000 13.302765 3.198344 0.116873 59.413177 6.708849 -4.203778 13.157627 25.911379 3.733648 0.000000 0.000000 0.000000 
-0.001299 0.949262 -0.001945 -2.995060 -3.872193 7.914126 8.144062 -0.200709 -1.086905 3.736603 0.422852 -11.973557 1.217683 7.703555 19.039736 0.000000 0.000000 0.000000 -4.731537 0.586522 -5.852117 0.943893 -0.171782 -2.621570 -8.095955 -20.456434 22.975054 0.000000 0.000000 0.000000 -2.635697 0.308587 -8.622478 5.570454 -1.595403 -13.259001 -1.173373 -1.342977 19.952235 -0.292710 0.963355 -19.239257 0.000000 0.000000 0.000000 -21.064788 5.785166 -3.929579 -54.166624 -9.341183 -3.929721 -16.341464 -21.317544 4.267134 0.000000 0.000000 0.000000 13.262249 3.274640 0.114958 59.177969 6.379364 -4.343983 13.620918 26.077481 3.843861 0.000000 0.000000 0.000000 
-0.001795 0.949217 -0.001690 -3.026298 -3.959203 7.837169 8.119615 -0.196081 -1.044691 3.881445 0.410260 -11.818473 1.273177 7.761130 18.994372 0.000000 0.000000 0.000000 -4.513919 0.578751 -5.740080 0.688910 -0.147500 -2.440429 -7.918069 -20.208036 22.364501 0.000000 0.000000 0.000000 -2.610498 0.312990 -8.733164 5.482775 -1.594756 -12.918647 -1.217614 -1.552643 19.953605 -0.314243 0.927810 -18.972653 0.000000 0.000000 0.000000 -21.097315 5.436384 -3.661066 -53.990302 -9.544492 -3.849494 -16.285041 -21.649291 4.334775 0.000000 0.000000 0.000000 13.227376 3.574611 0.214398 58.682276 5.969681 -4.520455 14.514681 26.294177 4.055290 0.000000 0.000000 0.000000 
-0.002317 0.949108 -0.001274 -3.006890 -4.053147 7.738727 8.235393 -0.191978 -0.976533 3.679485 0.399434 -11.654788 1.330628 7.813987 18.914282 0.000000 0.000000 0.000000 -4.510149 0.569419 -5.597672 0.658842 -0.143804 -2.399184 -7.770372 -20.001894 22.070224 0.000000 0.000000 0.000000 -2.482914 0.319573 -8.786155 5.378923 -1.579613 -12.692403 -1.285256 -1.545209 19.979034 -0.279649 0.895440 -18.873066 0.000000 0.000000 0.000000 -21.199553 5.100406 -3.457846 -53.599688 -9.444971 -3.900201 -16.539225 -21.850839 4.429537 0.000000 0.000000 0.000000 13.239771 3.678239 0.255423 58.480545 5.681861 -4.651715 15.050346 26.402891 4.187959 0.000000 0.000000 0.000000 
-0.002805 0.948993 -0.000804 -2.961163 -4.289809 7.757335 8.361562 -0.186632 -0.865599 3.378509 0.407723 -11.718844 1.444220 7.947809 18.948312 0.000000 0.000000 0.000000 -4.484756 0.556557 -5.365131 0.570099 -0.140283 -2.497656 -7.427127 -19.505142 21.115400 0.000000 0.000000 0.000000 -2.283002 0.333154 -8.877996 5.092752 -1.516471 -12.292659 -1.134311 -1.718511 19.699192 -0.532427 0.998101 -18.465977 0.000000 0.000000 0.000000 -21.394048 4.916771 -3.290490 -53.179262 -9.477168 -3.863047 -16.810314 -21.705226 4.459983 0.000000 0.000000 0.000000 13.114242 3.920815 0.313829 58.010634 5.369948 -4.738399 15.991261 26.590814 4.399512 0.000000 0.000000 0.000000 
-0.003206 0.948871 -0.000420 -2.893292 -4.527882 7.668697 8.351022 -0.180204 -0.867340 3.266972 0.386107 -11.395517 1.584498 8.091608 18.837271 0.000000 0.000000 0.000000 -4.420439 0.545798 -5.191993 0.359062 -0.125493 -2.515460 -7.255116 -19.262800 20.636296 0.000000 0.000000 0.000000 -2.205241 0.340237 -8.950842 4.917349 -1.503317 -11.685515 -0.907128 -1.729250 19.393197 -0.616698 1.020150 -18.127301 0.000000 0.000000 0.000000 -21.635635 4.796663 -3.206857 -52.665681 -9.350069 -3.889395 -16.815053 -21.550596 4.425620 0.000000 0.000000 0.000000 13.074223 4.320887 0.468613 57.274138 5.222371 -4.714688 16.941500 26.839616 4.633909 0.000000 0.000000 0.000000 
